Coordinates
version=1
nRows=26
nColumns=24
inDegrees=yes

Units are S.I. units (second, meters, Newtons, ...)
Angles are in degrees.

endheader
time	pelvis_tilt	pelvis_list	pelvis_rotation	pelvis_tx	pelvis_ty	pelvis_tz	hip_flexion_r	hip_adduction_r	hip_rotation_r	knee_angle_r	ankle_angle_r	subtalar_angle_r	mtp_angle_r	hip_flexion_l	hip_adduction_l	hip_rotation_l	knee_angle_l	ankle_angle_l	subtalar_angle_l	mtp_angle_l	lumbar_extension	lumbar_bending	lumbar_rotation
      1.35466667	      3.43986685	     -5.80522856	     -9.91220459	      0.84925716	      0.97860190	      0.36394334	    -23.56829555	      5.02871628	      0.10933610	     -6.30538562	     12.43818752	     -1.97542655	      3.31707388	     25.64172902	    -10.47023689	    -11.18583063	      2.16350369	      3.77033232	    -14.89309263	     -7.91963701	    -13.94995312	      5.16313994	      8.05542886
      1.35883333	      3.47131456	     -5.76276452	    -10.25302559	      0.85524451	      0.97772822	      0.36436354	    -23.86005197	      4.75579409	      0.27487137	     -6.48857365	     12.36051904	     -1.83853167	      3.50337664	     25.56224199	    -10.57692837	    -11.13212987	      1.63206068	      4.01559845	    -14.89498385	     -7.97691231	    -13.97397862	      4.96082322	      8.36746241
      1.36300000	      3.46133829	     -5.75470404	    -10.51543579	      0.86130318	      0.97675705	      0.36458756	    -24.12750837	      4.54727314	      0.40404845	     -6.64530792	     12.26184241	     -1.70524700	      3.54113377	     25.54021817	    -10.67578983	    -10.93247351	      1.08263600	      4.21566619	    -15.00385449	     -7.98416421	    -13.93214640	      4.83783019	      8.42225000
      1.36716667	      3.49603688	     -5.74947542	    -10.80560592	      0.86734661	      0.97589373	      0.36479609	    -24.41613366	      4.30864989	      0.51789637	     -6.84814787	     12.19333724	     -1.45248621	      3.68043903	     25.45464616	    -10.77758147	    -10.82065801	      0.50690956	      4.42095320	    -15.01693050	     -8.01321888	    -13.97139349	      4.70602309	      8.77074444
      1.37133333	      3.53410825	     -5.70463058	    -11.13501032	      0.87351876	      0.97510445	      0.36507403	    -24.69870555	      4.01022314	      0.64351530	     -7.05702204	     12.06284106	     -1.23521146	      3.89762861	     25.30890109	    -10.84598064	    -10.79256007	     -0.00911861	      4.58843203	    -15.01792959	     -8.04808939	    -13.98511011	      4.51475987	      9.06501688
      1.37550000	      3.51304410	     -5.68921489	    -11.38560526	      0.87975127	      0.97420488	      0.36515607	    -24.92765409	      3.77955985	      0.72796013	     -7.25783642	     11.86112090	     -1.10800424	      3.94176468	     25.24806785	    -10.90461593	    -10.64074550	     -0.55186899	      4.71864393	    -15.10734100	     -8.05119406	    -13.92231993	      4.40076585	      9.10156397
      1.37966667	      3.56262099	     -5.64816529	    -11.67778993	      0.88602829	      0.97347105	      0.36525413	    -25.20207804	      3.47481965	      0.77736020	     -7.50098935	     11.71244554	     -0.77210241	      4.15327302	     25.06600223	    -10.93580486	    -10.61775170	     -1.04722803	      4.80961909	    -15.08808811	     -8.06389102	    -13.94907343	      4.23107034	      9.45349514
      1.38383333	      3.53867862	     -5.63157135	    -11.92886013	      0.89237568	      0.97264472	      0.36527192	    -25.40496614	      3.23033025	      0.84565024	     -7.73943907	     11.44657188	     -0.62663788	      4.21434437	     24.96651325	    -10.97541862	    -10.52527507	     -1.54906194	      4.87605642	    -15.16479834	     -8.06455152	    -13.87028898	      4.12557119	      9.49555589
      1.38800000	      3.60446575	     -5.54164736	    -12.23968358	      0.89879949	      0.97203425	      0.36535917	    -25.66004980	      2.85138808	      0.85787313	     -8.02907930	     11.25832336	     -0.23834663	      4.51073444	     24.71554440	    -10.94397011	    -10.62322622	     -1.98136272	      4.84364876	    -15.13915947	     -8.05987210	    -13.89283241	      3.89103954	      9.86895940
      1.39216667	      3.69976215	     -5.44342275	    -12.56013806	      0.90527990	      0.97154779	      0.36547210	    -25.94045438	      2.45429616	      0.90818053	     -8.31337424	     10.96306222	      0.00831025	      4.97898368	     24.38519807	    -10.88982184	    -10.74177693	     -2.33599716	      4.73061809	    -15.20051797	     -8.03046906	    -13.93118218	      3.64378759	     10.09376049
      1.39633333	      3.66258301	     -5.44949336	    -12.76070399	      0.91172263	      0.97081195	      0.36531222	    -26.08999073	      2.23935348	      0.93595052	     -8.61809995	     10.59591130	      0.17757011	      5.06580564	     24.28466906	    -10.91233462	    -10.69190600	     -2.80329545	      4.64363981	    -15.24775210	     -8.02134219	    -13.84337732	      3.58874734	     10.11950822
      1.40050000	      3.70175884	     -5.30828127	    -13.04938534	      0.91833472	      0.97030539	      0.36528130	    -26.25105342	      1.80739955	      0.87358391	     -9.00192668	     10.32825505	      0.56613164	      5.46065720	     24.01128229	    -10.79319279	    -10.85582052	     -3.11778296	      4.40666872	    -15.31445861	     -7.96353020	    -13.80001170	      3.31625743	     10.39642340
      1.40466667	      3.80188220	     -5.24040518	    -13.33051960	      0.92486256	      0.96997596	      0.36528030	    -26.48703290	      1.44330092	      0.90256663	     -9.34571750	      9.82097097	      0.68223753	     13.98046687	     23.67570897	    -10.74028869	    -11.07283373	     -3.44478328	      4.12624889	    -15.32718883	     -6.35817957	    -13.85356830	      3.11104041	     10.63479075
      1.40883333	      3.79045661	     -5.12137592	    -13.53160131	      0.93152093	      0.96947498	      0.36505174	    -26.56688369	      1.07875401	      0.80290610	     -9.77520396	      9.41563870	      0.97095702	     14.02208273	     23.47806760	    -10.60235058	    -11.14589233	     -3.73057907	      3.71758621	    -15.52895398	     -6.34077656	    -13.74657071	      2.91201897	     10.66011340
      1.41300000	      3.84022013	     -4.98262923	    -13.74407117	      0.93818294	      0.96914930	      0.36484181	    -26.68130227	      0.67105812	      0.69706983	    -10.23620445	      8.97108946	      1.28992189	     14.11075478	     23.20056784	    -10.43506482	    -11.29481771	     -3.98359385	      3.22562331	    -15.73953102	     -6.30437990	    -13.70787905	      2.66597707	     10.77664734
      1.41716667	      3.88278341	     -4.84105263	    -13.93991303	      0.94482993	      0.96888336	      0.36460809	    -26.75677883	      0.27141450	      0.59021745	    -10.74398345	      8.47463471	      1.56822220	     14.23468970	     22.93739514	    -10.26014626	    -11.46607972	     -4.21539579	      2.64058450	    -15.96313738	     -6.24863446	    -13.66135166	      2.42247898	     10.86474618
      1.42133333	      4.02628009	     -4.67763865	    -14.10571245	      0.95145865	      0.96883391	      0.36428478	    -26.90763551	     -0.17251265	      0.42047070	    -11.28478780	      7.96981804	      1.93009115	     14.51954430	     22.56235674	    -10.02135900	    -11.63009822	     -4.39930846	      1.92894421	    -16.28043364	     -6.11597215	    -13.73707535	      2.13294002	     10.99850422
      1.42550000	      4.10773477	     -4.48262075	    -14.26998189	      0.95814913	      0.96877594	      0.36399265	    -26.95583348	     -0.62495836	      0.26241475	    -11.87969956	      7.40086618	      2.22071926	     14.90521870	     22.26719303	     -9.76862163	    -11.84065703	     -4.58777510	      1.15799053	    -16.57686014	     -5.93188058	    -13.72080460	      1.82182516	     11.06577055
      1.42966667	      4.19783743	     -4.27023113	    -14.40629369	      0.96483139	      0.96879414	      0.36363150	    -26.97370561	     -1.08828574	      0.05269682	    -12.53134794	      6.79229833	      2.49296608	     15.39026776	     21.97822358	     -9.48458961	    -12.03105964	     -4.76755512	      0.32193901	    -16.93064569	     -5.69593752	    -13.70816622	      1.49430460	     11.10250983
      1.43383333	      4.21132800	     -4.04172863	    -14.52079912	      0.97155925	      0.96876251	      0.36332548	    -26.88630822	     -1.52170206	     -0.11261499	    -13.22351363	      6.12253289	      2.60895836	     15.69680612	     21.83402000	     -9.21864770	    -12.29785714	     -5.06773229	     -0.44488168	    -17.17597115	     -5.55518419	    -13.59387738	      1.15614528	     11.06915140
      1.43800000	      4.36404651	     -3.79911918	    -14.58329834	      0.97820477	      0.96900149	      0.36277989	    -26.89037311	     -2.00937981	     -0.42050653	    -13.99401856	      5.44966914	      2.95990673	     16.34874026	     21.51958186	     -8.86072892	    -12.41454873	     -5.25519324	     -1.39316786	    -17.60050148	     -5.25804391	    -13.66042880	      0.80467508	     11.09483738
      1.44216667	      4.36584540	     -3.54329757	    -14.55348952	      0.98493796	      0.96903705	      0.36213222	    -26.71840815	     -2.42279502	     -0.78513777	    -14.79443822	      4.61025982	      3.05587634	     24.52259661	     21.46859723	     -8.51850499	    -12.53001803	     -5.60998211	     -2.22973097	    -17.91543023	     -1.52131030	    -13.53447248	      0.48853708	     10.90794577
      1.44633333	      4.44189265	     -3.27483236	    -14.63271785	      0.99158853	      0.96934104	      0.36180343	    -26.56786675	     -2.88970960	     -0.96014204	    -15.67482775	      3.80432902	      3.07304335	     24.56835926	     21.30795780	     -8.20822101	    -12.81513203	     -5.96300195	     -3.03146011	    -18.13326763	     -1.50115827	    -13.49201605	      0.08966111	     10.89427184
      1.45050000	      4.54113362	     -2.98106954	    -14.62898494	      0.99823454	      0.96970314	      0.36126508	    -26.40462876	     -3.36595545	     -1.25808225	    -16.61538420	      2.96285633	      3.19009137	     24.68223749	     21.16586201	     -7.83414869	    -12.99198069	     -6.35069836	     -3.83627140	    -18.39098499	     -1.46089806	    -13.48327116	     -0.31939548	     10.83095315
      1.45466667	      4.66049314	     -2.67261316	    -14.58218585	      1.00485997	      0.97015307	      0.36060277	    -26.21893171	     -3.85299835	     -1.61715426	    -17.62634078	      2.07756593	      3.35114971	     24.93506509	     21.01914821	     -7.42057778	    -13.08115547	     -6.75029133	     -4.63024130	    -18.71731353	     -1.37574265	    -13.50028170	     -0.72190440	     10.70426317
      1.45883333	      4.70512383	     -2.41573662	    -14.51594168	      1.01142854	      0.97056619	      0.36006553	    -25.93717540	     -4.23045838	     -1.85332914	    -18.67173529	      1.06168805	      3.24564103	     25.02168689	     21.02209345	     -7.11977956	    -13.24569358	     -7.33304964	     -5.18006520	    -18.69127289	     -1.35140552	    -13.45851446	     -1.07579332	     10.60719911
